<?xml version="1.0" encoding="UTF-8" standalone="no"?>
<!-- Created with Inkscape (http://www.inkscape.org/) -->

<svg
   width="271.26669mm"
   height="271.26669mm"
   viewBox="0 0 271.26669 271.26669"
   version="1.1"
   id="svg1"
   xml:space="preserve"
   inkscape:version="1.3.2 (091e20ef0f, 2023-11-25, custom)"
   sodipodi:docname="fore.svg"
   inkscape:export-filename="fore.png"
   inkscape:export-xdpi="96"
   inkscape:export-ydpi="96"
   xmlns:inkscape="http://www.inkscape.org/namespaces/inkscape"
   xmlns:sodipodi="http://sodipodi.sourceforge.net/DTD/sodipodi-0.dtd"
   xmlns:xlink="http://www.w3.org/1999/xlink"
   xmlns="http://www.w3.org/2000/svg"
   xmlns:svg="http://www.w3.org/2000/svg"><sodipodi:namedview
     id="namedview1"
     pagecolor="#ffffff"
     bordercolor="#000000"
     borderopacity="0.25"
     inkscape:showpageshadow="2"
     inkscape:pageopacity="0.0"
     inkscape:pagecheckerboard="0"
     inkscape:deskcolor="#d1d1d1"
     inkscape:document-units="mm"
     inkscape:zoom="1.1542019"
     inkscape:cx="415.87179"
     inkscape:cy="425.83539"
     inkscape:window-width="1646"
     inkscape:window-height="939"
     inkscape:window-x="0"
     inkscape:window-y="0"
     inkscape:window-maximized="1"
     inkscape:current-layer="g12" /><defs
     id="defs1"><linearGradient
       id="linearGradient27"
       inkscape:collect="always"><stop
         style="stop-color:#062136;stop-opacity:1;"
         offset="0"
         id="stop26" /><stop
         style="stop-color:#061420;stop-opacity:1;"
         offset="1"
         id="stop27" /></linearGradient><linearGradient
       id="linearGradient5"
       inkscape:collect="always"><stop
         style="stop-color:#26546e;stop-opacity:1;"
         offset="0"
         id="stop5" /><stop
         style="stop-color:#062136;stop-opacity:1;"
         offset="1"
         id="stop6" /></linearGradient><linearGradient
       id="linearGradient3"
       inkscape:collect="always"><stop
         style="stop-color:#cef5f2;stop-opacity:1;"
         offset="0"
         id="stop3" /><stop
         style="stop-color:#9cdce8;stop-opacity:1;"
         offset="1"
         id="stop4" /></linearGradient><linearGradient
       inkscape:collect="always"
       xlink:href="#linearGradient3"
       id="linearGradient4"
       x1="108.00988"
       y1="127.28562"
       x2="108.00988"
       y2="140.45909"
       gradientUnits="userSpaceOnUse"
       gradientTransform="matrix(0.98026893,0,0,1,-46.891557,-11.490147)" /><linearGradient
       inkscape:collect="always"
       xlink:href="#linearGradient5"
       id="linearGradient6"
       x1="112.42117"
       y1="146.2607"
       x2="112.42117"
       y2="210.65698"
       gradientUnits="userSpaceOnUse"
       gradientTransform="matrix(0.96881979,0,0,1.2457267,-58.137315,-53.094842)" /><linearGradient
       inkscape:collect="always"
       xlink:href="#linearGradient5"
       id="linearGradient8"
       x1="59.07877"
       y1="99.653847"
       x2="59.07877"
       y2="126.83422"
       gradientUnits="userSpaceOnUse"
       gradientTransform="translate(-3.5642022,12.219363)" /><linearGradient
       inkscape:collect="always"
       xlink:href="#linearGradient3"
       id="linearGradient25"
       x1="108.49966"
       y1="159.783"
       x2="108.49966"
       y2="199.55936"
       gradientUnits="userSpaceOnUse" /><linearGradient
       inkscape:collect="always"
       xlink:href="#linearGradient27"
       id="linearGradient26"
       gradientUnits="userSpaceOnUse"
       gradientTransform="matrix(1.0208212,0,0,1.3352206,-67.081044,-69.255317)"
       x1="112.42117"
       y1="146.2607"
       x2="112.42117"
       y2="210.65698" /><linearGradient
       inkscape:collect="always"
       xlink:href="#linearGradient3"
       id="linearGradient29"
       x1="104.14548"
       y1="120.85362"
       x2="104.14548"
       y2="133.85664"
       gradientUnits="userSpaceOnUse"
       gradientTransform="translate(0,-7.9375004)" /><linearGradient
       inkscape:collect="always"
       xlink:href="#linearGradient5"
       id="linearGradient31"
       x1="103.68489"
       y1="117.18681"
       x2="103.68489"
       y2="134.53439"
       gradientUnits="userSpaceOnUse"
       gradientTransform="translate(0,-7.4083337)" /><linearGradient
       inkscape:collect="always"
       xlink:href="#linearGradient3"
       id="linearGradient36"
       gradientUnits="userSpaceOnUse"
       gradientTransform="matrix(0.92240812,0,0,0.92240812,8.374237,-3.9197121)"
       x1="104.14548"
       y1="120.85362"
       x2="104.14548"
       y2="127.36043" /><linearGradient
       inkscape:collect="always"
       xlink:href="#linearGradient5"
       id="linearGradient37"
       gradientUnits="userSpaceOnUse"
       gradientTransform="matrix(0.92240812,0,0,0.92240812,8.374237,-3.3905454)"
       x1="103.68489"
       y1="117.18681"
       x2="103.68489"
       y2="127.63157" /><linearGradient
       inkscape:collect="always"
       xlink:href="#linearGradient3"
       id="linearGradient38"
       gradientUnits="userSpaceOnUse"
       gradientTransform="matrix(0.85565462,0,0,0.85565462,15.578725,-0.89289608)"
       x1="104.14548"
       y1="120.85362"
       x2="104.14548"
       y2="127.36043" /><linearGradient
       inkscape:collect="always"
       xlink:href="#linearGradient5"
       id="linearGradient39"
       gradientUnits="userSpaceOnUse"
       gradientTransform="matrix(0.85565462,0,0,0.85565462,15.578725,-0.36372941)"
       x1="103.68489"
       y1="117.18681"
       x2="103.68489"
       y2="127.63157" /><linearGradient
       inkscape:collect="always"
       xlink:href="#linearGradient3"
       id="linearGradient40"
       gradientUnits="userSpaceOnUse"
       gradientTransform="matrix(0.78376622,0,0,0.78376622,23.337405,3.7914296)"
       x1="104.14548"
       y1="120.85362"
       x2="104.14548"
       y2="127.36043" /><linearGradient
       inkscape:collect="always"
       xlink:href="#linearGradient5"
       id="linearGradient41"
       gradientUnits="userSpaceOnUse"
       gradientTransform="matrix(0.78376622,0,0,0.78376622,23.337405,4.3205963)"
       x1="103.68489"
       y1="117.18681"
       x2="103.68489"
       y2="127.63157" /><linearGradient
       inkscape:collect="always"
       xlink:href="#linearGradient3"
       id="linearGradient45"
       gradientUnits="userSpaceOnUse"
       gradientTransform="matrix(0.72191926,0,0,0.72191926,30.012345,7.3457958)"
       x1="104.14548"
       y1="120.85362"
       x2="104.14548"
       y2="127.36043" /><linearGradient
       inkscape:collect="always"
       xlink:href="#linearGradient5"
       id="linearGradient46"
       gradientUnits="userSpaceOnUse"
       gradientTransform="matrix(0.72191926,0,0,0.72191926,30.012345,7.8332065)"
       x1="103.68489"
       y1="117.18681"
       x2="103.68489"
       y2="127.63157" /><linearGradient
       inkscape:collect="always"
       xlink:href="#linearGradient3"
       id="linearGradient32"
       gradientUnits="userSpaceOnUse"
       x1="105.74353"
       y1="165.24451"
       x2="105.74352"
       y2="193.79071"
       gradientTransform="matrix(1.3036651,0,0,1.3036651,-33.411354,-63.132703)" /><linearGradient
       inkscape:collect="always"
       xlink:href="#linearGradient3"
       id="linearGradient2"
       x1="104.86082"
       y1="153.81693"
       x2="104.86082"
       y2="187.91629"
       gradientUnits="userSpaceOnUse"
       gradientTransform="matrix(1.0913597,0,0,1.0913597,-9.99809,-15.578798)" /></defs><g
     inkscape:label="图层 1"
     inkscape:groupmode="layer"
     id="layer1"
     transform="translate(27.562538,-14.475021)"><g
       id="g12"
       transform="matrix(1.1759287,0,0,1.1759287,-19.086522,-26.744734)"><path
         id="path44"
         style="fill:url(#linearGradient46);stroke-width:0.193151"
         d="m 75.867461,92.072295 h 64.118519 c 1.83202,0 3.41992,1.478354 3.30689,3.306862 l -0.76403,12.360233 c -0.11304,1.82853 -1.47489,3.30688 -3.30689,3.30688 H 76.631492 c -1.832013,0 -3.193854,-1.47835 -3.306882,-3.30688 L 72.560578,95.379157 c -0.113027,-1.828508 1.47487,-3.306862 3.306883,-3.306862 z"
         sodipodi:nodetypes="sssssssss" /><path
         id="path45"
         style="fill:url(#linearGradient45);stroke-width:0.177258"
         d="m 78.50525,94.292063 h 58.84294 c 1.68128,0 3.1478,1.357324 3.0348,3.034785 l -0.76403,11.343262 c -0.11299,1.67748 -1.35352,3.03479 -3.0348,3.03479 H 79.269281 c -1.681278,0 -2.921811,-1.35731 -3.034798,-3.03479 L 75.470452,97.326848 c -0.112987,-1.677461 1.353521,-3.034785 3.034798,-3.034785 z"
         sodipodi:nodetypes="sssssssss" /><path
         id="path39"
         style="fill:url(#linearGradient41);stroke-width:0.209698"
         d="M 73.120938,95.776464 H 142.7325 c 1.98897,0 3.71291,1.605001 3.59019,3.590162 l -0.82948,13.419164 c -0.12272,1.98518 -1.60124,3.59018 -3.59019,3.59018 H 73.950424 c -1.988962,0 -3.467473,-1.605 -3.590184,-3.59018 L 69.530754,99.366626 c -0.12271,-1.985161 1.601222,-3.590162 3.590184,-3.590162 z"
         sodipodi:nodetypes="sssssssss" /><path
         id="path40"
         style="fill:url(#linearGradient40);stroke-width:0.192444"
         d="m 75.984707,98.186402 h 63.884023 c 1.82532,0 3.41747,1.473601 3.2948,3.294778 l -0.82949,12.31506 c -0.12267,1.82119 -1.46948,3.29478 -3.29479,3.29478 H 76.814193 c -1.825314,0 -3.172124,-1.47359 -3.29479,-3.29478 l -0.829486,-12.31506 c -0.122666,-1.821177 1.469477,-3.294778 3.29479,-3.294778 z"
         sodipodi:nodetypes="sssssssss" /><path
         id="path37"
         style="fill:url(#linearGradient39);stroke-width:0.228932"
         d="m 69.92849,99.480633 h 75.99646 c 2.1714,0 4.05346,1.752217 3.91949,3.919477 l -0.90557,14.65 c -0.13397,2.16726 -1.7481,3.91947 -3.91949,3.91947 H 70.834058 c -2.171393,0 -3.785515,-1.75221 -3.919482,-3.91947 l -0.905567,-14.65 c -0.133966,-2.16726 1.748088,-3.919477 3.919481,-3.919477 z"
         sodipodi:nodetypes="sssssssss" /><path
         id="path38"
         style="fill:url(#linearGradient38);stroke-width:0.210095"
         d="m 73.054929,102.16016 h 69.743581 c 1.99274,0 3.73092,1.60877 3.597,3.597 l -0.90557,13.44461 c -0.13392,1.98824 -1.60426,3.59699 -3.59699,3.59699 H 73.960497 c -1.992735,0 -3.463076,-1.60875 -3.596994,-3.59699 l -0.905568,-13.44461 c -0.133917,-1.98823 1.60426,-3.597 3.596994,-3.597 z"
         sodipodi:nodetypes="sssssssss" /><path
         id="path33"
         style="fill:url(#linearGradient37);stroke-width:0.246792"
         d="m 66.964075,104.24316 h 81.925285 c 2.3408,0 4.36969,1.88892 4.22527,4.22526 l -0.97622,15.79291 c -0.14442,2.33634 -1.88447,4.22525 -4.22526,4.22525 H 67.94029 c -2.340793,0 -4.08084,-1.88891 -4.225258,-4.22525 l -0.976215,-15.79291 c -0.144417,-2.33634 1.884465,-4.22526 4.225258,-4.22526 z"
         sodipodi:nodetypes="sssssssss" /><path
         id="path34"
         style="fill:url(#linearGradient36);stroke-width:0.226486"
         d="m 70.334422,107.17302 h 75.184598 c 2.1482,0 4.02198,1.73427 3.87761,3.87761 l -0.97621,14.49349 c -0.14437,2.14335 -1.72942,3.87761 -3.87761,3.87761 H 71.310637 c -2.148197,0 -3.733246,-1.73426 -3.877612,-3.87761 L 66.45681,111.05063 c -0.144365,-2.14334 1.729415,-3.87761 3.877612,-3.87761 z"
         sodipodi:nodetypes="sssssssss" /><path
         id="rect27"
         style="fill:url(#linearGradient31);stroke-width:0.267552"
         d="m 63.518346,109.27938 h 88.816744 c 2.5377,0 4.73726,2.04781 4.58069,4.58068 l -1.05833,17.12139 c -0.15657,2.53287 -2.04299,4.58068 -4.58069,4.58068 H 64.576679 c -2.537698,0 -4.424116,-2.04781 -4.580682,-4.58068 l -1.058333,-17.12139 c -0.156565,-2.53287 2.042984,-4.58068 4.580682,-4.58068 z"
         sodipodi:nodetypes="sssssssss" /><path
         id="rect28"
         style="fill:url(#linearGradient29);stroke-width:0.245538"
         d="m 67.172202,112.50021 h 81.509038 c 2.3289,0 4.3603,1.88015 4.20379,4.20379 l -1.05833,15.71267 c -0.15651,2.32364 -1.87489,4.20379 -4.20379,4.20379 H 68.230535 c -2.328901,0 -4.047282,-1.88015 -4.203792,-4.20379 L 62.96841,116.704 c -0.156509,-2.32364 1.874891,-4.20379 4.203792,-4.20379 z"
         sodipodi:nodetypes="sssssssss" /><path
         id="rect3-0"
         style="fill:url(#linearGradient8);stroke-width:0.264583"
         d="m 59.248701,114.96907 c -2.602228,0 -4.86151,2.09985 -4.697388,4.69687 l 1.058334,16.74678 H 113.2976 l -0.0501,-0.0899 c 7.57239,-3.08116 46.54185,0.0656 46.54185,0.0656 l 1.05834,-12.78403 c 0.21469,-2.59334 -2.09517,-4.70122 -4.69738,-4.69739 l -54.57429,0.0804 c -0.57907,-1.9734 -3.073071,-4.01835 -5.675293,-4.01835 z"
         sodipodi:nodetypes="ssccccsscss" /><path
         id="rect3"
         style="fill:url(#linearGradient4);stroke-width:0.26196"
         d="m 63.591441,118.7399 c -2.550882,0 -4.831363,2.10459 -4.604197,4.69687 l 1.050205,11.98428 95.750791,1.2051 1.05021,-9.54144 c 0.28467,-2.58632 -2.05382,-4.69654 -4.6047,-4.69687 l -54.181537,-0.007 c -0.177712,-1.26236 -2.343206,-3.64091 -4.89409,-3.64091 z"
         sodipodi:nodetypes="ssccsscss" /><path
         id="circle15-1"
         style="fill:#e6e6e6;fill-opacity:1;stroke-width:0.406252"
         d="m 105.81743,170.66239 a 15.032205,15.032205 0 0 1 -0.0357,-0.67025 15.032205,15.032205 0 0 0 -0.006,0.0832 15.032205,15.032205 0 0 0 0.0418,0.58705 z" /><path
         id="path23"
         style="display:none;fill:url(#linearGradient25);stroke-width:0.406252"
         d="m 99.382168,160.14933 v 5.2e-4 c -10.731891,5e-5 -19.431838,8.7 -19.431889,19.43189 0.01979,10.25251 10.135265,17.07162 17.175311,17.95388 4.44511,0.55706 7.41192,-0.0373 8.16113,-2.81578 0.61324,-2.27423 -0.79708,-5.32882 -4.61574,-5.35058 -4.070999,-0.0232 -11.076933,-4.39653 -11.078912,-9.78752 3e-5,-5.4069 4.383202,-9.79007 9.7901,-9.7901 5.406912,3e-5 7.552972,4.20207 10.285162,8.56485 2.68551,4.28826 7.36625,5.91861 12.43386,5.99188 l 0.01,7.5029 c 0.002,1.79133 1.80413,2.98929 3.60857,3.0856 0.73632,-0.0439 1.46557,-0.30423 2.0593,-0.83664 5.106,-4.57846 8.70655,-8.4012 11.72642,-11.59154 0.30641,-0.35395 0.61268,-0.70638 0.92036,-1.06918 0.50182,-0.59173 0.76084,-1.50105 0.77359,-2.41484 -0.0128,-0.9138 -0.27177,-1.82311 -0.77359,-2.41484 -0.30768,-0.3628 -0.61395,-0.71523 -0.92036,-1.06919 -3.01987,-3.19033 -6.62042,-7.01306 -11.72642,-11.59154 -0.59373,-0.53239 -1.32298,-0.79267 -2.0593,-0.83664 -1.80444,0.0964 -3.60637,1.29427 -3.60857,3.0856 l -0.0103,7.87756 c -2.26844,-0.5251 -4.16663,-1.58494 -5.55935,-3.71192 -2.50705,-3.8288 -4.66343,-5.90314 -7.46466,-7.57835 -2.80124,-1.67522 -6.21418,-2.62282 -9.694502,-2.63602 z"
         sodipodi:nodetypes="cccsasccscccccscscscccsscc" /><path
         style="fill:#000000"
         id="path41"
         d="" /><path
         id="path25"
         style="fill:url(#linearGradient26);stroke-width:0.308896"
         d="M 52.497615,125.47782 H 164.48263 c 2.65639,0 5.07261,2.81623 4.79494,6.27172 l -5.94202,73.94712 c -0.27767,3.4555 -2.13855,6.27172 -4.79494,6.27172 H 58.439638 c -2.656388,0 -4.517263,-2.81622 -4.794937,-6.27172 l -5.942023,-73.94712 c -0.277664,-3.45549 2.138549,-6.27172 4.794937,-6.27172 z"
         sodipodi:nodetypes="sssssssss" /><path
         id="rect2"
         style="fill:url(#linearGradient6);stroke-width:0.290667"
         d="M 55.349915,128.58624 H 161.63033 c 2.52107,0 4.8142,2.62745 4.55068,5.85134 l -5.63933,68.99079 c -0.26352,3.2239 -2.02961,5.85135 -4.55069,5.85135 H 60.989248 c -2.52107,0 -4.28715,-2.62745 -4.550679,-5.85135 l -5.639333,-68.99079 c -0.263518,-3.22389 2.02961,-5.85134 4.550679,-5.85134 z"
         sodipodi:nodetypes="sssssssss" /><path
         id="path11"
         style="color:#000000;fill:url(#linearGradient32);fill-opacity:1;stroke:url(#linearGradient2);stroke-width:1.70078339;stroke-dasharray:none"
         d="m 111.2906,144.3432 v 1.87787 l 3.24451,5.9e-4 v 4.39583 H 78.130751 c -3.857789,0 -7.186281,3.15084 -7.004955,7.00435 l 1.204849,25.60542 c 0.181327,3.85352 3.147168,7.00437 7.004956,7.00437 h 35.199509 v 4.76763 l -3.24451,0.0164 v 1.68432 h 9.18933 v -1.68432 l -3.24508,-0.0164 v -4.76763 h 22.30502 c 3.85779,0 6.82128,-3.15085 7.0026,-7.00437 l 1.20485,-25.60542 c 0.18131,-3.85351 -3.14483,-7.00435 -7.0026,-7.00435 h -23.50987 v -4.39642 h 3.24508 v -1.87787 z m -33.159849,8.88166 h 36.404359 v 34.3994 H 79.335601 c -2.458432,0 -4.282031,-1.94129 -4.397585,-4.397 l -1.204848,-25.60542 c -0.115545,-2.4557 1.939149,-4.39698 4.397583,-4.39698 z m 39.104099,0 h 23.50987 c 2.45844,0 4.51077,1.94128 4.39523,4.39698 l -1.20486,25.60542 c -0.11552,2.45571 -1.93678,4.397 -4.39522,4.397 h -22.30502 z m -36.040792,4.63172 1.204851,25.0924 h 2.893286 l -0.602424,-10.36711 h 3.962238 l 6.766104,10.36711 h 3.375108 L 91.28762,171.70295 c 0.771483,-0.30459 1.500367,-0.71472 2.186143,-1.23016 0.707212,-0.53888 1.28545,-1.2535 1.735503,-2.14379 0.450026,-0.89028 0.675374,-2.00256 0.675374,-3.33804 0,-2.38973 -0.685747,-4.17094 -2.057307,-5.3424 -1.350109,-1.19489 -3.450497,-1.79198 -6.300752,-1.79198 z m 2.893286,2.74092 h 3.278629 c 1.885883,0 3.279254,0.35137 4.179323,1.05424 0.900092,0.67944 1.350162,1.83978 1.350162,3.47983 0,1.56974 -0.428811,2.76452 -1.286036,3.58454 -0.857215,0.79659 -1.615962,1.19426 -3.480417,1.19426 h -3.439234 z m 19.002856,3.73339 0.47006,4.70349 -4.256974,-1.32249 -0.313571,2.25379 4.078155,0.3671 -2.6221,3.87046 1.99436,1.1513 1.72551,-4.28638 1.90494,4.28638 1.92669,-1.1513 -2.66621,-3.87046 4.12286,-0.3671 -0.31417,-2.25379 -4.30169,1.32249 0.44831,-4.70349 z"
         sodipodi:nodetypes="ccccssssccccccccsssscccccsccsssscsssscccccccccccsscsccscscscccccccccccccccccc" /></g></g></svg>
