<?xml version="1.0" encoding="UTF-8" standalone="no"?>
<!-- Created with Inkscape (http://www.inkscape.org/) -->

<svg
   width="271.26669mm"
   height="271.26669mm"
   viewBox="0 0 271.26669 271.26669"
   version="1.1"
   id="svg1"
   xml:space="preserve"
   inkscape:version="1.3.2 (091e20ef0f, 2023-11-25, custom)"
   sodipodi:docname="fore.svg"
   inkscape:export-filename="fore.png"
   inkscape:export-xdpi="96"
   inkscape:export-ydpi="96"
   xmlns:inkscape="http://www.inkscape.org/namespaces/inkscape"
   xmlns:sodipodi="http://sodipodi.sourceforge.net/DTD/sodipodi-0.dtd"
   xmlns:xlink="http://www.w3.org/1999/xlink"
   xmlns="http://www.w3.org/2000/svg"
   xmlns:svg="http://www.w3.org/2000/svg"><sodipodi:namedview
     id="namedview1"
     pagecolor="#ffffff"
     bordercolor="#000000"
     borderopacity="0.25"
     inkscape:showpageshadow="2"
     inkscape:pageopacity="0.0"
     inkscape:pagecheckerboard="0"
     inkscape:deskcolor="#d1d1d1"
     inkscape:document-units="mm"
     inkscape:zoom="1.1264267"
     inkscape:cx="539.75994"
     inkscape:cy="428.34568"
     inkscape:window-width="1646"
     inkscape:window-height="939"
     inkscape:window-x="0"
     inkscape:window-y="0"
     inkscape:window-maximized="1"
     inkscape:current-layer="g12" /><defs
     id="defs1"><linearGradient
       id="linearGradient27"
       inkscape:collect="always"><stop
         style="stop-color:#062136;stop-opacity:1;"
         offset="0"
         id="stop26" /><stop
         style="stop-color:#061420;stop-opacity:1;"
         offset="1"
         id="stop27" /></linearGradient><linearGradient
       id="linearGradient5"
       inkscape:collect="always"><stop
         style="stop-color:#26546e;stop-opacity:1;"
         offset="0"
         id="stop5" /><stop
         style="stop-color:#062136;stop-opacity:1;"
         offset="1"
         id="stop6" /></linearGradient><linearGradient
       id="linearGradient3"
       inkscape:collect="always"><stop
         style="stop-color:#cef5f2;stop-opacity:1;"
         offset="0"
         id="stop3" /><stop
         style="stop-color:#9cdce8;stop-opacity:1;"
         offset="1"
         id="stop4" /></linearGradient><linearGradient
       inkscape:collect="always"
       xlink:href="#linearGradient3"
       id="linearGradient4"
       x1="108.00988"
       y1="127.28562"
       x2="108.00988"
       y2="140.45909"
       gradientUnits="userSpaceOnUse"
       gradientTransform="matrix(0.98026893,0,0,1,-46.891557,-1.4359793)" /><linearGradient
       inkscape:collect="always"
       xlink:href="#linearGradient5"
       id="linearGradient6"
       x1="112.42117"
       y1="146.2607"
       x2="112.42117"
       y2="210.65698"
       gradientUnits="userSpaceOnUse"
       gradientTransform="matrix(0.96881979,0,0,1.0925451,-58.137315,-20.501146)" /><linearGradient
       inkscape:collect="always"
       xlink:href="#linearGradient5"
       id="linearGradient8"
       x1="59.07877"
       y1="99.653847"
       x2="59.07877"
       y2="126.83422"
       gradientUnits="userSpaceOnUse"
       gradientTransform="translate(-3.5642022,21.744369)" /><linearGradient
       inkscape:collect="always"
       xlink:href="#linearGradient3"
       id="linearGradient25"
       x1="108.49966"
       y1="159.783"
       x2="108.49966"
       y2="199.55936"
       gradientUnits="userSpaceOnUse" /><linearGradient
       inkscape:collect="always"
       xlink:href="#linearGradient27"
       id="linearGradient26"
       gradientUnits="userSpaceOnUse"
       gradientTransform="matrix(1.0208212,0,0,1.1710342,-67.081044,-34.674437)"
       x1="112.42117"
       y1="146.2607"
       x2="112.42117"
       y2="210.65698" /><linearGradient
       inkscape:collect="always"
       xlink:href="#linearGradient3"
       id="linearGradient29"
       x1="104.14548"
       y1="120.85362"
       x2="104.14548"
       y2="133.85664"
       gradientUnits="userSpaceOnUse"
       gradientTransform="translate(0,-2.6458334)" /><linearGradient
       inkscape:collect="always"
       xlink:href="#linearGradient5"
       id="linearGradient31"
       x1="103.68489"
       y1="117.18681"
       x2="103.68489"
       y2="134.53439"
       gradientUnits="userSpaceOnUse"
       gradientTransform="translate(0,-2.1166667)" /><linearGradient
       inkscape:collect="always"
       xlink:href="#linearGradient3"
       id="linearGradient36"
       gradientUnits="userSpaceOnUse"
       gradientTransform="matrix(0.92240812,0,0,0.92240812,8.374237,-0.21554526)"
       x1="104.14548"
       y1="120.85362"
       x2="104.14548"
       y2="127.36043" /><linearGradient
       inkscape:collect="always"
       xlink:href="#linearGradient5"
       id="linearGradient37"
       gradientUnits="userSpaceOnUse"
       gradientTransform="matrix(0.92240812,0,0,0.92240812,8.374237,0.31362136)"
       x1="103.68489"
       y1="117.18681"
       x2="103.68489"
       y2="127.63157" /><linearGradient
       inkscape:collect="always"
       xlink:href="#linearGradient3"
       id="linearGradient38"
       gradientUnits="userSpaceOnUse"
       gradientTransform="matrix(0.85565462,0,0,0.85565462,15.578725,2.282104)"
       x1="104.14548"
       y1="120.85362"
       x2="104.14548"
       y2="127.36043" /><linearGradient
       inkscape:collect="always"
       xlink:href="#linearGradient5"
       id="linearGradient39"
       gradientUnits="userSpaceOnUse"
       gradientTransform="matrix(0.85565462,0,0,0.85565462,15.578725,2.8112707)"
       x1="103.68489"
       y1="117.18681"
       x2="103.68489"
       y2="127.63157" /><linearGradient
       inkscape:collect="always"
       xlink:href="#linearGradient3"
       id="linearGradient40"
       gradientUnits="userSpaceOnUse"
       gradientTransform="matrix(0.78376622,0,0,0.78376622,23.337405,6.4372631)"
       x1="104.14548"
       y1="120.85362"
       x2="104.14548"
       y2="127.36043" /><linearGradient
       inkscape:collect="always"
       xlink:href="#linearGradient5"
       id="linearGradient41"
       gradientUnits="userSpaceOnUse"
       gradientTransform="matrix(0.78376622,0,0,0.78376622,23.337405,6.9664298)"
       x1="103.68489"
       y1="117.18681"
       x2="103.68489"
       y2="127.63157" /><linearGradient
       inkscape:collect="always"
       xlink:href="#linearGradient3"
       id="linearGradient45"
       gradientUnits="userSpaceOnUse"
       gradientTransform="matrix(0.72191926,0,0,0.72191926,30.012345,9.4624626)"
       x1="104.14548"
       y1="120.85362"
       x2="104.14548"
       y2="127.36043" /><linearGradient
       inkscape:collect="always"
       xlink:href="#linearGradient5"
       id="linearGradient46"
       gradientUnits="userSpaceOnUse"
       gradientTransform="matrix(0.72191926,0,0,0.72191926,30.012345,9.9498733)"
       x1="103.68489"
       y1="117.18681"
       x2="103.68489"
       y2="127.63157" /><linearGradient
       inkscape:collect="always"
       xlink:href="#linearGradient3"
       id="linearGradient32"
       gradientUnits="userSpaceOnUse"
       x1="105.74353"
       y1="165.24451"
       x2="105.74353"
       y2="193.79071"
       gradientTransform="matrix(1.145132,0,0,1.145132,-15.902739,-29.899974)" /></defs><g
     inkscape:label="图层 1"
     inkscape:groupmode="layer"
     id="layer1"
     transform="translate(27.562538,-14.475021)"><g
       id="g12"><path
         id="path44"
         style="fill:url(#linearGradient46);stroke-width:0.193151"
         d="m 75.867461,94.188963 h 64.118519 c 1.83202,0 3.41992,1.478354 3.30689,3.306862 l -0.76403,12.360245 c -0.11304,1.82853 -1.47489,3.30688 -3.30689,3.30688 H 76.631492 c -1.832013,0 -3.193854,-1.47835 -3.306882,-3.30688 L 72.560578,97.495825 c -0.113027,-1.828508 1.47487,-3.306862 3.306883,-3.306862 z"
         sodipodi:nodetypes="sssssssss" /><path
         id="path45"
         style="fill:url(#linearGradient45);stroke-width:0.177258"
         d="m 78.50525,96.408731 h 58.84294 c 1.68128,0 3.1478,1.357324 3.0348,3.034785 l -0.76403,11.343274 c -0.11299,1.67748 -1.35352,3.03479 -3.0348,3.03479 H 79.269281 c -1.681278,0 -2.921811,-1.35731 -3.034798,-3.03479 L 75.470452,99.443516 c -0.112987,-1.677461 1.353521,-3.034785 3.034798,-3.034785 z"
         sodipodi:nodetypes="sssssssss" /><path
         id="path39"
         style="fill:url(#linearGradient41);stroke-width:0.209698"
         d="M 73.120938,98.422299 H 142.7325 c 1.98897,0 3.71291,1.605001 3.59019,3.590171 l -0.82948,13.41917 c -0.12272,1.98518 -1.60124,3.59018 -3.59019,3.59018 H 73.950424 c -1.988962,0 -3.467473,-1.605 -3.590184,-3.59018 l -0.829486,-13.41917 c -0.12271,-1.98517 1.601222,-3.590171 3.590184,-3.590171 z"
         sodipodi:nodetypes="sssssssss" /><path
         id="path40"
         style="fill:url(#linearGradient40);stroke-width:0.192444"
         d="m 75.984707,100.83224 h 63.884023 c 1.82532,0 3.41747,1.47361 3.2948,3.29479 l -0.82949,12.31506 c -0.12267,1.82119 -1.46948,3.29478 -3.29479,3.29478 H 76.814193 c -1.825314,0 -3.172124,-1.47359 -3.29479,-3.29478 l -0.829486,-12.31506 c -0.122666,-1.82118 1.469477,-3.29479 3.29479,-3.29479 z"
         sodipodi:nodetypes="sssssssss" /><path
         id="path37"
         style="fill:url(#linearGradient39);stroke-width:0.228932"
         d="m 69.92849,102.65565 h 75.99646 c 2.1714,0 4.05346,1.75222 3.91949,3.91948 l -0.90557,14.65 c -0.13397,2.16726 -1.7481,3.91947 -3.91949,3.91947 H 70.834058 c -2.171393,0 -3.785515,-1.75221 -3.919482,-3.91947 l -0.905567,-14.65 c -0.133966,-2.16726 1.748088,-3.91948 3.919481,-3.91948 z"
         sodipodi:nodetypes="sssssssss" /><path
         id="path38"
         style="fill:url(#linearGradient38);stroke-width:0.210095"
         d="m 73.054929,105.33518 h 69.743581 c 1.99274,0 3.73092,1.60877 3.597,3.597 l -0.90557,13.44461 c -0.13392,1.98824 -1.60426,3.59699 -3.59699,3.59699 H 73.960497 c -1.992735,0 -3.463076,-1.60875 -3.596994,-3.59699 l -0.905568,-13.44461 c -0.133917,-1.98823 1.60426,-3.597 3.596994,-3.597 z"
         sodipodi:nodetypes="sssssssss" /><path
         id="path33"
         style="fill:url(#linearGradient37);stroke-width:0.246792"
         d="m 66.964075,107.94735 h 81.925285 c 2.3408,0 4.36969,1.88892 4.22527,4.22526 l -0.97622,15.79291 c -0.14442,2.33634 -1.88447,4.22525 -4.22526,4.22525 H 67.94029 c -2.340793,0 -4.08084,-1.88891 -4.225258,-4.22525 l -0.976215,-15.79291 c -0.144417,-2.33634 1.884465,-4.22526 4.225258,-4.22526 z"
         sodipodi:nodetypes="sssssssss" /><path
         id="path34"
         style="fill:url(#linearGradient36);stroke-width:0.226486"
         d="m 70.334422,110.87721 h 75.184598 c 2.1482,0 4.02198,1.73427 3.87761,3.87761 l -0.97621,14.49349 c -0.14437,2.14335 -1.72942,3.87761 -3.87761,3.87761 H 71.310637 c -2.148197,0 -3.733246,-1.73426 -3.877612,-3.87761 L 66.45681,114.75482 c -0.144365,-2.14334 1.729415,-3.87761 3.877612,-3.87761 z"
         sodipodi:nodetypes="sssssssss" /><path
         id="rect27"
         style="fill:url(#linearGradient31);stroke-width:0.267552"
         d="m 63.518346,114.57108 h 88.816744 c 2.5377,0 4.73726,2.04781 4.58069,4.58068 l -1.05833,17.12139 c -0.15657,2.53287 -2.04299,4.58068 -4.58069,4.58068 H 64.576679 c -2.537698,0 -4.424116,-2.04781 -4.580682,-4.58068 l -1.058333,-17.12139 c -0.156565,-2.53287 2.042984,-4.58068 4.580682,-4.58068 z"
         sodipodi:nodetypes="sssssssss" /><path
         id="rect28"
         style="fill:url(#linearGradient29);stroke-width:0.245538"
         d="m 67.172202,117.79191 h 81.509038 c 2.3289,0 4.3603,1.88015 4.20379,4.20379 l -1.05833,15.71267 c -0.15651,2.32364 -1.87489,4.20379 -4.20379,4.20379 H 68.230535 c -2.328901,0 -4.047282,-1.88015 -4.203792,-4.20379 L 62.96841,121.9957 c -0.156509,-2.32364 1.874891,-4.20379 4.203792,-4.20379 z"
         sodipodi:nodetypes="sssssssss" /><path
         id="rect3-0"
         style="fill:url(#linearGradient8);stroke-width:0.264583"
         d="m 59.248701,121.31913 c -2.602228,0 -4.697388,2.09467 -4.697388,4.69687 l 1.058334,19.92178 H 113.2976 l -0.0501,-0.0899 c 7.57239,-3.08116 46.54185,0.0656 46.54185,0.0656 l 1.05834,-11.88403 c 0.23083,-2.59196 -2.09517,-4.69739 -4.69738,-4.69739 H 104.0346 l -1.8495,-3.31608 c -1.26767,-2.27256 -3.682151,-4.69687 -6.284373,-4.69687 z"
         sodipodi:nodetypes="ssccccssccss" /><path
         id="rect3"
         style="fill:url(#linearGradient4);stroke-width:0.26196"
         d="m 63.591441,125.61913 c -2.550882,0 -4.604197,2.09466 -4.604197,4.69687 l 1.050205,15.15928 95.750791,1.2051 1.05021,-9.09144 c 0.29858,-2.58475 -2.05382,-4.69687 -4.6047,-4.69687 H 99.829291 L 98.419006,130.316 c -1.243873,-2.27188 -3.609997,-4.69687 -6.160881,-4.69687 z"
         sodipodi:nodetypes="ssccssccss" /><path
         id="circle15-1"
         style="fill:#e6e6e6;fill-opacity:1;stroke-width:0.406252"
         d="M 105.81743 170.66239 A 15.032205 15.032205 0 0 1 105.78178 169.99214 A 15.032205 15.032205 0 0 0 105.77558 170.07534 A 15.032205 15.032205 0 0 0 105.81743 170.66239 z " /><path
         id="path23"
         style="display:none;fill:url(#linearGradient25);stroke-width:0.406252"
         d="m 99.382168,160.14933 v 5.2e-4 c -10.731891,5e-5 -19.431838,8.7 -19.431889,19.43189 0.01979,10.25251 10.135265,17.07162 17.175311,17.95388 4.44511,0.55706 7.41192,-0.0373 8.16113,-2.81578 0.61324,-2.27423 -0.79708,-5.32882 -4.61574,-5.35058 -4.070999,-0.0232 -11.076933,-4.39653 -11.078912,-9.78752 3e-5,-5.4069 4.383202,-9.79007 9.7901,-9.7901 5.406912,3e-5 7.552972,4.20207 10.285162,8.56485 2.68551,4.28826 7.36625,5.91861 12.43386,5.99188 l 0.01,7.5029 c 0.002,1.79133 1.80413,2.98929 3.60857,3.0856 0.73632,-0.0439 1.46557,-0.30423 2.0593,-0.83664 5.106,-4.57846 8.70655,-8.4012 11.72642,-11.59154 0.30641,-0.35395 0.61268,-0.70638 0.92036,-1.06918 0.50182,-0.59173 0.76084,-1.50105 0.77359,-2.41484 -0.0128,-0.9138 -0.27177,-1.82311 -0.77359,-2.41484 -0.30768,-0.3628 -0.61395,-0.71523 -0.92036,-1.06919 -3.01987,-3.19033 -6.62042,-7.01306 -11.72642,-11.59154 -0.59373,-0.53239 -1.32298,-0.79267 -2.0593,-0.83664 -1.80444,0.0964 -3.60637,1.29427 -3.60857,3.0856 l -0.0103,7.87756 c -2.26844,-0.5251 -4.16663,-1.58494 -5.55935,-3.71192 -2.50705,-3.8288 -4.66343,-5.90314 -7.46466,-7.57835 -2.80124,-1.67522 -6.21418,-2.62282 -9.694502,-2.63602 z"
         sodipodi:nodetypes="cccsasccscccccscscscccsscc" /><path
         style="fill:#000000"
         id="path41" /><path
         id="path25"
         style="fill:url(#linearGradient26);stroke-width:0.289282"
         d="M 52.497615,136.1132 H 164.48263 c 2.65639,0 5.07261,2.46993 4.79494,5.50051 l -5.94202,64.85415 c -0.27767,3.0306 -2.13855,5.50052 -4.79494,5.50052 H 58.439638 c -2.656388,0 -4.517263,-2.46992 -4.794937,-5.50052 l -5.942023,-64.85415 c -0.277664,-3.03058 2.138549,-5.50051 4.794937,-5.50051 z"
         sodipodi:nodetypes="sssssssss" /><path
         id="rect2"
         style="fill:url(#linearGradient6);stroke-width:0.27221"
         d="M 55.349915,138.83938 H 161.63033 c 2.52107,0 4.8142,2.30437 4.55068,5.13184 l -5.63933,60.50728 c -0.26352,2.82747 -2.02961,5.13183 -4.55069,5.13183 H 60.989248 c -2.52107,0 -4.28715,-2.30436 -4.550679,-5.13183 l -5.639333,-60.50728 c -0.263518,-2.82747 2.02961,-5.13184 4.550679,-5.13184 z"
         sodipodi:nodetypes="sssssssss" /><path
         id="path11"
         style="color:#000000;fill:url(#linearGradient32);fill-opacity:1;stroke-width:1.14514;-inkscape-stroke:none"
         d="m 111.20264,152.34568 v 1.64951 l 2.84995,5.1e-4 v 3.86127 H 82.075214 c -3.38866,0 -6.312388,2.76769 -6.153113,6.15259 l 1.058333,22.49165 c 0.159276,3.38491 2.764453,6.1526 6.153113,6.1526 h 30.919043 v 4.18786 l -2.84995,0.0145 v 1.47949 h 8.07185 v -1.47949 l -2.85047,-0.0145 v -4.18786 h 19.59261 c 3.38865,0 5.99177,-2.76769 6.15104,-6.1526 l 1.05833,-22.49165 c 0.15927,-3.3849 -2.76239,-6.15259 -6.15104,-6.15259 h -20.65094 v -3.86178 h 2.85047 v -1.64951 z m -29.127426,7.80159 h 31.977376 v 30.21624 H 83.133547 c -2.159474,0 -3.761312,-1.70521 -3.862813,-3.8623 l -1.058333,-22.49165 c -0.1015,-2.15708 1.703339,-3.86229 3.862813,-3.86229 z m 34.348806,0 h 20.65094 c 2.15948,0 3.96224,1.70521 3.86074,3.86229 l -1.05833,22.49165 c -0.1015,2.15709 -1.70126,3.8623 -3.86074,3.8623 h -19.59261 z m -31.658014,4.06848 1.058333,22.04103 h 2.541447 l -0.529166,-9.10642 h 3.480407 l 5.943307,9.10642 h 2.964676 l -6.592878,-9.87846 c 0.677667,-0.26755 1.317915,-0.6278 1.920296,-1.08056 0.621211,-0.47335 1.129132,-1.10106 1.524455,-1.88309 0.395302,-0.78203 0.593245,-1.75905 0.593245,-2.93212 0,-2.09912 -0.602355,-3.66373 -1.807125,-4.69273 -1.185929,-1.04958 -3.030897,-1.57407 -5.534546,-1.57407 z m 2.541447,2.40761 h 2.879928 c 1.656547,0 2.880477,0.30864 3.671093,0.92604 0.790635,0.59682 1.185974,1.61606 1.185974,3.05666 0,1.37885 -0.376664,2.42834 -1.129646,3.14864 -0.752974,0.69972 -1.419452,1.04904 -3.057178,1.04904 H 87.83662 Z m 16.692007,3.27938 0.41289,4.13153 -3.7393,-1.16168 -0.27544,1.97972 3.58221,0.32246 -2.30322,3.3998 1.75183,1.0113 1.51567,-3.76514 1.67329,3.76514 1.6924,-1.0113 -2.34198,-3.3998 3.62149,-0.32246 -0.27596,-1.97972 -3.77858,1.16168 0.39378,-4.13153 z"
         sodipodi:nodetypes="ccccssssccccccccsssscccccsccsssscsssscccccccccccsscsccscscscccccccccccccccccc" /></g></g></svg>
