<?xml version="1.0" encoding="UTF-8" standalone="no"?>
<!-- Created with Inkscape (http://www.inkscape.org/) -->

<svg
   width="271.26669mm"
   height="271.26669mm"
   viewBox="0 0 271.26669 271.26669"
   version="1.1"
   id="svg1"
   xml:space="preserve"
   inkscape:version="1.3.2 (091e20ef0f, 2023-11-25, custom)"
   sodipodi:docname="icon.svg"
   inkscape:export-filename="icon.png"
   inkscape:export-xdpi="96"
   inkscape:export-ydpi="96"
   xmlns:inkscape="http://www.inkscape.org/namespaces/inkscape"
   xmlns:sodipodi="http://sodipodi.sourceforge.net/DTD/sodipodi-0.dtd"
   xmlns="http://www.w3.org/2000/svg"
   xmlns:svg="http://www.w3.org/2000/svg"><sodipodi:namedview
     id="namedview1"
     pagecolor="#ffffff"
     bordercolor="#000000"
     borderopacity="0.25"
     inkscape:showpageshadow="2"
     inkscape:pageopacity="0.0"
     inkscape:pagecheckerboard="0"
     inkscape:deskcolor="#d1d1d1"
     inkscape:document-units="mm"
     inkscape:zoom="0.63340085"
     inkscape:cx="513.89258"
     inkscape:cy="513.89258"
     inkscape:window-width="1646"
     inkscape:window-height="939"
     inkscape:window-x="0"
     inkscape:window-y="0"
     inkscape:window-maximized="1"
     inkscape:current-layer="text1" /><defs
     id="defs1" /><g
     inkscape:label="图层 1"
     inkscape:groupmode="layer"
     id="layer1"
     transform="translate(27.562538,-14.475021)"><g
       id="g12"><rect
         style="fill:#80b3ff;stroke-width:0.264583;fill-opacity:1"
         id="rect1"
         width="271.93481"
         height="271.09937"
         x="-27.980257"
         y="14.475021" /><rect
         style="fill:#ffffff;stroke-width:1.34231;stroke-linecap:round"
         id="rect8"
         width="4.2252803"
         height="70.55146"
         x="33.710026"
         y="112.9999"
         ry="3.9302475" /><g
         id="text8"
         transform="translate(-7.9661547,-43.506014)"
         style="fill:#ffffff" /><g
         id="text1"
         style="font-size:55.8053px;fill:#ffffff;stroke-width:0.290652"
         aria-label="Re(*)"><path
           style="font-family:'Noto Sans';-inkscape-font-specification:'Noto Sans';stroke-width:0.367011"
           d="m 62.647727,120.60363 c 6.248006,0 10.851799,1.19793 13.811381,3.59378 3.006561,2.34887 4.50984,9.92828 4.50984,14.71998 0,2.67773 -0.493263,6.91373 -1.479792,8.69887 -0.986527,1.78513 -2.254918,3.21795 -3.805175,4.29843 -1.503281,1.03351 -3.100514,1.85561 -4.791704,2.46632 l 13.811381,25.22195 H 77.304704 L 65.114046,156.14267 H 55.107841 v 23.46029 H 48.76588 V 120.60363 Z M 62.295397,126.1 h -7.187556 v 24.68724 h 7.539886 c 4.087042,0 7.070113,-0.79862 8.949213,-2.39585 1.879099,-1.64422 2.818649,-6.04463 2.818649,-9.19212 0,-3.28843 -0.986527,-9.62294 -2.959583,-10.98528 C 69.482952,126.80465 66.429416,126.1 62.295397,126.1 Z m 44.041403,15.0284 c 3.24145,0 6.01312,0.70465 8.31501,2.11398 2.34888,1.40934 4.13403,3.40588 5.35544,5.98963 1.26839,2.53679 1.90259,5.51986 1.90259,8.94921 v 3.73471 H 96.048705 c 0.09396,4.27495 1.174436,7.53989 3.241447,9.79481 2.113988,2.20795 5.050098,3.31192 8.808308,3.31192 2.39585,0 4.50984,-0.21141 6.34196,-0.63421 1.8791,-0.46976 3.80517,-1.12745 5.77823,-1.97305 v 5.4259 c -1.92608,0.84561 -3.82867,1.45631 -5.70776,1.83212 -1.8791,0.4228 -4.11054,0.63421 -6.6943,0.63421 -3.57029,0 -6.74129,-0.72816 -9.512967,-2.18447 -2.724694,-1.4563 -4.862169,-3.61726 -6.412426,-6.48289 -1.50328,-2.91259 -2.25492,-6.4594 -2.25492,-10.6404 0,-4.13401 0.681173,-7.68081 2.043521,-10.6404 1.409325,-2.95958 3.358891,-5.23798 5.848697,-6.83522 2.536785,-1.59723 5.472895,-2.39585 8.808305,-2.39585 z m -0.0704,5.07356 c -2.9596,0 -5.30849,0.96304 -7.046654,2.88912 -1.69119,1.87911 -2.701206,4.50984 -3.030048,7.89221 H 115.427 c -0.047,-3.19446 -0.79861,-5.77822 -2.25492,-7.75128 -1.45629,-2.02002 -3.75818,-3.03005 -6.90568,-3.03005 z"
           id="path4"
           sodipodi:nodetypes="scsscccccccccssccscscssccscccsccccsccsccssccccs" /><path
           style="font-family:Cantarell;-inkscape-font-specification:Cantarell;stroke-width:0.367011"
           d="m 168.77968,166.12402 2.81864,-4.65077 -13.17718,-6.41243 -1.19793,1.97306 z m -21.915,-0.14094 11.55646,-9.01966 -1.12746,-1.9026 -13.31812,6.2715 z m 8.10361,4.50985 h 5.6373 l -1.62072,-14.5865 h -2.25492 z m 2.32539,-13.67045 1.19792,-1.83211 -11.48599,-9.09015 -2.88912,4.58031 z m -0.56373,-0.91605 h 2.25492 l 1.62072,-14.58652 h -5.6373 z m 1.62072,0.91605 13.31812,-6.06009 -2.88911,-4.7917 -11.55647,8.87875 z"
           id="path5" /><path
           style="font-family:'Noto Sans';-inkscape-font-specification:'Noto Sans';stroke-width:0.332511"
           d="m 187.32219,155.72757 q 0,6.99877 -2.53678,13.47697 -2.46632,6.42034 -7.82176,11.51035 h -5.77822 q 4.86216,-5.43706 7.32849,-11.8574 2.53677,-6.47819 2.53677,-13.18774 0,-6.88311 -2.53677,-13.41911 -2.46633,-6.53604 -7.39896,-11.97309 h 5.84869 q 5.35544,5.26352 7.82176,11.85739 2.53678,6.53604 2.53678,13.59263 z"
           id="path6" /><path
           d="m 127.76353,155.41856 c 0,-4.70439 0.82211,-9.23527 2.46632,-13.59264 1.6912,-4.3959 4.32194,-8.34837 7.89222,-11.85738 h 5.84869 c -3.28842,3.62472 -5.77822,7.61572 -7.46942,11.97309 -1.6442,4.35735 -2.46631,8.83039 -2.46631,13.41912 0,4.47302 0.82211,8.86895 2.46631,13.18772 1.6912,4.28024 4.15752,8.23271 7.39896,11.8574 h -5.77823 c -3.57028,-3.39333 -6.20102,-7.23011 -7.89222,-11.51034 -1.64421,-4.3188 -2.46632,-8.81111 -2.46632,-13.47697 z"
           style="font-family:'Noto Sans';-inkscape-font-specification:'Noto Sans';stroke-width:0.332511"
           id="path1" /></g></g></g></svg>
