<?xml version="1.0" encoding="UTF-8" standalone="no"?>
<!-- Created with Inkscape (http://www.inkscape.org/) -->

<svg
   width="271.26669mm"
   height="271.26669mm"
   viewBox="0 0 271.26669 271.26669"
   version="1.1"
   id="svg1"
   xml:space="preserve"
   inkscape:version="1.3 (0e150ed6c4, 2023-07-21)"
   sodipodi:docname="icon.svg"
   inkscape:export-filename="icon.png"
   inkscape:export-xdpi="96"
   inkscape:export-ydpi="96"
   xmlns:inkscape="http://www.inkscape.org/namespaces/inkscape"
   xmlns:sodipodi="http://sodipodi.sourceforge.net/DTD/sodipodi-0.dtd"
   xmlns="http://www.w3.org/2000/svg"
   xmlns:svg="http://www.w3.org/2000/svg"><sodipodi:namedview
     id="namedview1"
     pagecolor="#ffffff"
     bordercolor="#000000"
     borderopacity="0.25"
     inkscape:showpageshadow="2"
     inkscape:pageopacity="0.0"
     inkscape:pagecheckerboard="0"
     inkscape:deskcolor="#d1d1d1"
     inkscape:document-units="mm"
     inkscape:zoom="0.38178432"
     inkscape:cx="523.85599"
     inkscape:cy="459.68363"
     inkscape:window-width="1440"
     inkscape:window-height="831"
     inkscape:window-x="0"
     inkscape:window-y="0"
     inkscape:window-maximized="1"
     inkscape:current-layer="layer1" /><defs
     id="defs1" /><g
     inkscape:label="图层 1"
     inkscape:groupmode="layer"
     id="layer1"
     transform="translate(27.562538,-14.475021)"><g
       id="g12"><path
         id="rect7"
         style="fill:#e6e6e6;stroke:#b3b3b3;stroke-width:4;stroke-linecap:round;stroke-linejoin:round;stroke-dasharray:none;stroke-opacity:1"
         d="M 128.04512,53.452864 H 54.872446 c -12.514745,0 -22.589967,10.075221 -22.589967,22.589968 V 224.17389 c 0,12.51475 10.075222,22.58998 22.589967,22.58998 H 161.26918 c 12.51474,0 22.58996,-10.07523 22.58996,-22.58998 V 109.26621 Z" /><path
         id="path7"
         style="fill:#b3b3b3;stroke-width:1.74151;stroke-linecap:round"
         d="M 183.85914,109.26621 128.04512,53.452871 v 33.223374 c 0,12.514757 10.07522,22.589965 22.58996,22.589965 z" /><rect
         style="fill:#80b3ff;stroke-width:1.45305;stroke-linecap:round"
         id="rect8"
         width="4.6985426"
         height="74.347969"
         x="47.955479"
         y="143.38919"
         ry="4.1417413" /><path
         d="m 74.976694,199.42695 c -4.007613,0 -7.272241,-1.03568 -9.793885,-3.10704 -2.521644,-2.07134 -4.390362,-4.97574 -5.606155,-8.71317 -1.170763,-3.73743 -1.756145,-8.06025 -1.756145,-12.96845 0,-4.95323 0.585382,-9.29856 1.756145,-13.036 1.215793,-3.73744 3.084511,-6.64184 5.606155,-8.71318 2.566673,-2.11638 5.853816,-3.17457 9.861429,-3.17457 4.007613,0 7.272241,1.03568 9.793885,3.10702 2.566674,2.07135 4.435392,4.97574 5.606155,8.71318 1.215792,3.69241 1.823688,8.01523 1.823688,12.96846 0,4.99826 -0.607896,9.36611 -1.823688,13.10354 -1.215792,3.73743 -3.107025,6.64183 -5.673699,8.71317 -2.521644,2.07136 -5.786272,3.10704 -9.793885,3.10704 z m 0.135088,-5.40352 c 4.052642,0 6.889492,-1.71112 8.510549,-5.13336 1.621056,-3.46726 2.431585,-8.24036 2.431585,-14.31932 0,-6.124 -0.810529,-10.89712 -2.431585,-14.31934 -1.621057,-3.42223 -4.435392,-5.13334 -8.443005,-5.13334 -4.097671,0 -6.97955,1.73363 -8.645636,5.20088 -1.666087,3.46726 -2.49913,8.21785 -2.49913,14.2518 0,6.07896 0.833043,10.85206 2.49913,14.31932 1.666086,3.42224 4.52545,5.13336 8.578092,5.13336 z m 25.599218,4.72808 v -4.05264 l 13.23862,-1.01317 v -41.20186 l -12.83336,-0.87807 v -4.18773 h 18.91233 v 46.26766 l 11.75267,1.01317 v 4.05264 z m 53.62998,0.67544 c -4.70165,-0.37485 -10.12629,-1.22715 -13.36014,-4.66054 -3.40118,-3.61102 -4.31389,-9.36563 -4.05264,-14.31934 0.2474,-4.69147 1.95943,-9.72263 5.24321,-13.08238 2.30353,-2.35682 11.19338,-8.30045 21.14888,-4.00626 1.94544,0.83915 4.25256,2.25147 5.10812,3.78247 0.2366,-1.78106 0.009,-3.55327 0,-5.33598 v -14.38688 h 6.70802 v 51.33347 h -5.69486 l -0.67544,-4.86318 h -0.27018 c -0.99064,1.62105 -3.37763,3.1006 -5.44584,3.9851 -2.71132,1.15954 -5.7696,1.78788 -8.70913,1.55352 z m 10.33019,-8.24038 c 2.37613,-2.27178 3.75724,-5.29094 3.75724,-9.11843 0,-5.48283 -0.0612,-9.13406 -5.17567,-12.04806 -6.82587,-3.82953 -13.54551,-0.88389 -16.15062,1.6886 -2.40754,2.37739 -3.73272,5.9704 -3.95987,9.34629 -1.20506,17.90919 17.20065,14.26983 21.52892,10.1316 z"
         id="text8-5"
         style="font-size:51.309px;font-family:'Noto Sans Mono';-inkscape-font-specification:'Noto Sans Mono';fill:#b3b3b3;stroke-width:2.11076;stroke-linecap:round"
         aria-label="Old"
         sodipodi:nodetypes="sscsccsccsscsscssssscscccccccccccaaaaacsccccccaaasaasa" /><g
         id="text8"
         transform="translate(-3.7328214,-1.1726784)"><path
           style="color:#000000;-inkscape-font-specification:'Noto Sans Mono';fill:#e6e6e6;stroke-linecap:square;-inkscape-stroke:none"
           d="m 60.080078,167.08594 v 51.22656 h 1.5 7.880859 v -28.38281 c 0,-1.46765 -0.07786,-4.75528 -0.152343,-8.51953 l 18.099609,36.90234 h 9.796875 v -51.22656 h -8.876953 v 27.03125 c 0,1.52944 0.03757,4.42159 0.07422,7.88476 L 71.050781,167.08594 Z m 3,3 h 6.111328 l 19.429688,39.0957 2.841797,-0.68555 c 0,0 -0.134766,-11.6813 -0.134766,-14.3789 v -24.03125 h 2.876953 v 45.22656 h -4.927734 l -20.240235,-41.27148 -2.845703,0.69335 c 0,0 0.269532,12.78083 0.269531,15.19532 v 25.38281 h -3.380859 z m 57.167972,8.34765 c -3.64137,0 -6.92402,0.82688 -9.74024,2.50391 -2.81289,1.63042 -5.03162,4.03232 -6.58593,7.08789 -2.8e-4,5.3e-4 2.7e-4,0.001 0,0.002 -1.57303,3.04851 -2.33008,6.67468 -2.33008,10.81836 0,6.2671 1.79008,11.35785 5.45312,14.92188 l 0.004,0.004 0.004,0.004 c 3.64637,3.49856 8.66603,5.21289 14.75,5.21289 1.95597,0 4.0103,-0.21533 6.16407,-0.63672 2.18435,-0.42737 4.35988,-1.11401 6.52343,-2.05469 l 0.90235,-0.39257 v -8.73828 l -2.13281,0.99218 c -1.86691,0.86834 -3.725,1.55902 -5.57813,2.07617 -1.80868,0.50475 -3.62969,0.75586 -5.47461,0.75586 -2.35913,0 -4.38524,-0.35752 -6.10937,-1.03515 -1.59936,-0.68885 -2.83475,-1.76912 -3.8125,-3.36719 -0.72251,-1.23786 -1.14855,-3.06176 -1.36328,-5.22852 h 26.09179 v -4.26953 c 0,-5.57082 -1.4684,-10.17965 -4.50195,-13.5625 -2.98865,-3.3833 -7.21493,-5.09375 -12.26367,-5.09375 z m 18.63867,0.67578 6.29101,39.20313 h 1.27735 8.25195 l 3.60156,-13.81445 1.45313,-3.3013 c 0.48116,1.7968 0.94265,1.47537 1.38086,3.272 v 0.008 l 3.5332,13.83594 h 9.73438 l 6.43554,-39.20313 h -9.1151 l -2.50794,19.16797 -0.002,0.002 c -0.22498,1.4624 -0.37412,2.68161 -0.50781,3.84765 -0.24541,-0.97638 -0.48417,-1.98118 -0.75,-2.86914 l -0.01,-0.0332 -3.67187,-13.29297 H 155.322 l -3.81836,13.29297 c -0.23014,0.76714 -0.43394,1.67001 -0.64844,2.51562 -0.10501,-1.09221 -0.21148,-2.18719 -0.41992,-3.47265 l -2.82032,-19.15821 z m -18.63867,2.32422 c 4.40428,0 7.60693,1.34945 10.02148,4.08594 l 0.004,0.004 0.004,0.004 c 2.45881,2.74097 3.73633,6.50751 3.73633,11.5625 v 1.26953 H 107.6955 l 0.0449,1.54297 c 0.0947,3.31496 0.70142,6.05924 1.96094,8.21094 l 0.006,0.0117 0.008,0.0117 c 1.26932,2.08169 3.04366,3.65347 5.21485,4.58398 l 0.0195,0.008 0.0195,0.008 c 2.1433,0.84737 4.56485,1.2539 7.23828,1.2539 2.11765,0 4.21545,-0.29123 6.2793,-0.86718 1.30623,-0.36453 2.60558,-0.93363 3.90625,-1.45313 v 2.16016 c -1.67344,0.66646 -3.34296,1.25354 -5.00195,1.57812 -1.98895,0.38914 -3.85145,0.58008 -5.5879,0.58008 -5.53116,0 -9.65232,-1.48189 -12.66992,-4.375 l -0.004,-0.004 c -2.99612,-2.91976 -4.53711,-7.05798 -4.53711,-12.76367 0,-3.78076 0.68781,-6.90856 1.99609,-9.44336 l 0.002,-0.004 0.002,-0.006 c 1.32597,-2.61052 3.11198,-4.52567 5.42578,-5.86524 l 0.008,-0.004 0.008,-0.006 c 2.31477,-1.38075 5.0163,-2.08399 8.21485,-2.08399 z m 22.16015,0.67578 h 2.61719 l 2.44727,16.62891 0.002,0.01 c 0.26447,1.63097 0.43745,3.07349 0.52344,4.32031 l 0.002,0.0273 0.004,0.0254 c 0.13315,1.28712 0.24316,2.59648 0.33203,3.92969 l 0.002,0.0254 0.002,0.0234 c 0.13164,1.31641 0.24289,2.89317 0.33203,4.7207 l 0.0703,1.42578 h 2.89062 l 0.21875,-1.23828 c 0.13488,-0.76431 0.31341,-1.82041 0.53516,-3.15039 0.26927,-1.39129 0.56258,-2.87347 0.87695,-4.44531 2.7e-4,-0.001 -2.6e-4,-0.003 0,-0.004 0.3513,-1.57751 0.72315,-3.01982 1.11328,-4.32031 l 0.002,-0.01 3.20312,-11.14648 h 4.41602 l 3.07617,11.14063 0.006,0.0156 c 0.39427,1.31426 0.76929,2.74529 1.12304,4.29297 v 0.004 l 0.002,0.006 c 0.35611,1.51344 0.66565,2.95779 0.93164,4.33204 l 0.006,0.0273 0.008,0.0273 c 0.30647,1.31343 0.49658,2.37085 0.57617,3.12696 l 0.14063,1.34179 h 2.94531 l 0.10352,-1.38672 c 0.13524,-1.80333 0.24949,-3.35993 0.33984,-4.66992 v -0.002 -0.002 c 0.0888,-1.33314 0.19886,-2.64254 0.33203,-3.92969 0.13162,-1.27248 0.33221,-2.78147 0.59961,-4.51953 l 2.63477,-16.62696 h 2.49023 l -5.45117,33.20313 h -4.85547 l -2.94922,-11.55273 -0.004,-0.0156 c -0.45188,-1.85218 -0.92694,-3.70464 -1.42382,-5.55664 -0.48728,-1.81619 -0.90808,-3.60878 -1.26172,-5.37695 l -0.24024,-1.20508 h -2.66211 l -0.24023,1.20508 c -0.35128,1.75638 -0.79166,3.53751 -1.32031,5.34375 l -0.006,0.0156 -1.49024,5.56055 -3.01953,11.58203 h -4.6543 z m -22.16015,1.25391 c -3.32233,0 -6.23181,1.07335 -8.40821,3.19727 -2.10678,2.05541 -3.41341,4.85058 -3.94726,8.19922 l -0.27735,1.73632 H 131 l -0.0664,-1.56445 c -0.1452,-3.38809 -1.08911,-6.24024 -2.93554,-8.35156 -1.83174,-2.14509 -4.56302,-3.2168 -7.75,-3.2168 z m 0,3 c 2.56938,0 4.24634,0.72652 5.47656,2.17383 l 0.008,0.008 0.006,0.01 c 1.03501,1.18287 1.6196,2.88858 1.92578,4.9414 h -16.29297 c 0.55587,-1.94352 1.34324,-3.59952 2.5625,-4.78906 1.60594,-1.56769 3.60346,-2.34375 6.31446,-2.34375 z"
           id="path12"
           sodipodi:nodetypes="ccccscccccscccccccsccccccscccccscscccssccccssccccscccccccccccccccccccccccccccccccscccccccccssccssccsccccccccccccccccccccccccccccccccccccccccccccscccccccsccccccccccsccccccssccccccccc" /><path
           style="color:#000000;-inkscape-font-specification:'Noto Sans Mono';fill:#666666;stroke-linecap:square;-inkscape-stroke:none"
           d="m 61.579394,216.81253 v -48.22644 h 8.542463 L 89.9638,208.51362 c 0,0 -0.135088,-11.64909 -0.135088,-14.39588 v -25.53165 h 5.87633 v 48.22644 h -7.362299 l -20.652471,-42.1101 c 0,0 0.270176,12.70594 0.270176,15.22757 v 26.88253 z m 60.222886,0.67544 c -5.80879,0 -10.37927,-1.59854 -13.71143,-4.79563 -3.33218,-3.24211 -4.99827,-7.85761 -4.99827,-13.84652 0,-3.96259 0.72048,-7.33979 2.16141,-10.13161 1.44094,-2.83685 3.44475,-4.99826 6.01142,-6.48422 2.56667,-1.531 5.56113,-2.2965 8.98336,-2.2965 4.72809,0 8.443,1.53099 11.14476,4.59299 2.7468,3.062 4.12019,7.24973 4.12019,12.5632 v 2.76929 h -26.27463 c 0.09,3.15206 0.67544,5.65118 1.75614,7.49739 1.12573,1.84621 2.63423,3.17457 4.52546,3.9851 1.93625,0.76551 4.16521,1.14826 6.68686,1.14826 1.98129,0 3.94006,-0.27018 5.87633,-0.81053 1.93626,-0.54035 3.87253,-1.26083 5.80878,-2.16142 v 5.40353 c -2.07134,0.90058 -4.1427,1.55351 -6.21404,1.95877 -2.07136,0.40526 -4.03013,0.6079 -5.87634,0.6079 z m 7.63248,-22.49216 c -0.13509,-3.15205 -0.99065,-5.62867 -2.56667,-7.42984 -1.53101,-1.80118 -3.73744,-2.70176 -6.61932,-2.70176 -3.01697,0 -5.47107,0.9231 -7.3623,2.7693 -1.8462,1.80118 -3.01696,4.25528 -3.51229,7.3623 z m 17.02112,21.81672 -5.80879,-36.2036 h 5.6737 l 2.63422,17.89916 c 0.27017,1.6661 0.45029,3.15207 0.54035,4.45792 0.13509,1.30584 0.24767,2.63421 0.33772,3.98509 0.13508,1.35088 0.24766,2.94942 0.33772,4.79563 h 0.20263 c 0.13509,-0.7655 0.31521,-1.82368 0.54035,-3.17456 0.27017,-1.39592 0.56286,-2.88189 0.87808,-4.45792 0.36024,-1.62105 0.74299,-3.10702 1.14824,-4.4579 l 3.5123,-12.22547 h 6.68686 l 3.3772,12.22547 c 0.40526,1.35088 0.788,2.81433 1.14824,4.39036 0.36024,1.531 0.67544,2.99445 0.94562,4.39036 0.31521,1.35089 0.51784,2.45411 0.6079,3.30966 h 0.20263 c 0.13508,-1.80117 0.24766,-3.35469 0.33772,-4.66054 0.09,-1.35088 0.20263,-2.67925 0.33773,-3.98509 0.13507,-1.30585 0.33771,-2.83686 0.60789,-4.59301 l 2.83684,-17.89916 h 5.53861 l -5.94387,36.2036 h -7.29475 l -3.24211,-12.69828 c -0.4503,-1.84621 -0.9231,-3.6924 -1.41843,-5.53861 -0.49533,-1.84621 -0.9231,-3.6699 -1.28334,-5.47107 h -0.20263 c -0.36024,1.80117 -0.81053,3.62486 -1.35088,5.47107 l -1.48597,5.53861 -3.30966,12.69828 z"
           id="path11" /></g></g></g></svg>
