<?xml version="1.0" encoding="UTF-8" standalone="no"?>
<!-- Created with Inkscape (http://www.inkscape.org/) -->

<svg
   width="271.26669mm"
   height="271.26669mm"
   viewBox="0 0 271.26669 271.26669"
   version="1.1"
   id="svg1"
   xml:space="preserve"
   inkscape:version="1.3.2 (091e20ef0f, 2023-11-25, custom)"
   sodipodi:docname="monochrome.svg"
   inkscape:export-filename="monochrome.png"
   inkscape:export-xdpi="96"
   inkscape:export-ydpi="96"
   xmlns:inkscape="http://www.inkscape.org/namespaces/inkscape"
   xmlns:sodipodi="http://sodipodi.sourceforge.net/DTD/sodipodi-0.dtd"
   xmlns:xlink="http://www.w3.org/1999/xlink"
   xmlns="http://www.w3.org/2000/svg"
   xmlns:svg="http://www.w3.org/2000/svg"><sodipodi:namedview
     id="namedview1"
     pagecolor="#ffffff"
     bordercolor="#000000"
     borderopacity="0.25"
     inkscape:showpageshadow="2"
     inkscape:pageopacity="0.0"
     inkscape:pagecheckerboard="0"
     inkscape:deskcolor="#d1d1d1"
     inkscape:document-units="mm"
     inkscape:zoom="4.8090619"
     inkscape:cx="517.98044"
     inkscape:cy="574.33238"
     inkscape:window-width="1600"
     inkscape:window-height="918"
     inkscape:window-x="0"
     inkscape:window-y="0"
     inkscape:window-maximized="1"
     inkscape:current-layer="g12" /><defs
     id="defs1"><linearGradient
       id="linearGradient27"
       inkscape:collect="always"><stop
         style="stop-color:#062136;stop-opacity:1;"
         offset="0"
         id="stop26" /><stop
         style="stop-color:#061420;stop-opacity:1;"
         offset="1"
         id="stop27" /></linearGradient><linearGradient
       id="linearGradient5"
       inkscape:collect="always"><stop
         style="stop-color:#26546e;stop-opacity:1;"
         offset="0"
         id="stop5" /><stop
         style="stop-color:#062136;stop-opacity:1;"
         offset="1"
         id="stop6" /></linearGradient><linearGradient
       id="linearGradient3"
       inkscape:collect="always"><stop
         style="stop-color:#cef5f2;stop-opacity:1;"
         offset="0"
         id="stop3" /><stop
         style="stop-color:#9cdce8;stop-opacity:1;"
         offset="1"
         id="stop4" /></linearGradient><linearGradient
       inkscape:collect="always"
       xlink:href="#linearGradient5"
       id="linearGradient8"
       x1="59.07877"
       y1="99.653847"
       x2="59.07877"
       y2="126.83422"
       gradientUnits="userSpaceOnUse"
       gradientTransform="matrix(0.84828905,0,0,0.84426975,13.68481,28.851122)" /><linearGradient
       inkscape:collect="always"
       xlink:href="#linearGradient3"
       id="linearGradient25"
       x1="108.49966"
       y1="159.783"
       x2="108.49966"
       y2="199.55936"
       gradientUnits="userSpaceOnUse" /><linearGradient
       inkscape:collect="always"
       xlink:href="#linearGradient27"
       id="linearGradient26"
       gradientUnits="userSpaceOnUse"
       gradientTransform="matrix(0.86595145,0,0,1.1272864,-40.195833,-39.935485)"
       x1="112.42117"
       y1="146.2607"
       x2="112.42117"
       y2="210.65698" /><linearGradient
       inkscape:collect="always"
       xlink:href="#linearGradient5"
       id="linearGradient31"
       x1="103.68489"
       y1="117.18681"
       x2="103.68489"
       y2="134.53439"
       gradientUnits="userSpaceOnUse"
       gradientTransform="matrix(0.84828905,0,0,0.84426975,16.708282,12.280051)" /><linearGradient
       inkscape:collect="always"
       xlink:href="#linearGradient5"
       id="linearGradient37"
       gradientUnits="userSpaceOnUse"
       gradientTransform="matrix(0.78246872,0,0,0.77876128,23.812057,15.672148)"
       x1="103.68489"
       y1="117.18681"
       x2="103.68489"
       y2="127.63157" /><linearGradient
       inkscape:collect="always"
       xlink:href="#linearGradient5"
       id="linearGradient39"
       gradientUnits="userSpaceOnUse"
       gradientTransform="matrix(0.72584245,0,0,0.72240332,29.923545,18.227598)"
       x1="103.68489"
       y1="117.18681"
       x2="103.68489"
       y2="127.63157" /><linearGradient
       inkscape:collect="always"
       xlink:href="#linearGradient5"
       id="linearGradient41"
       gradientUnits="userSpaceOnUse"
       gradientTransform="matrix(0.66486031,0,0,0.66171012,36.505148,22.182433)"
       x1="103.68489"
       y1="117.18681"
       x2="103.68489"
       y2="127.63157" /><linearGradient
       inkscape:collect="always"
       xlink:href="#linearGradient5"
       id="linearGradient46"
       gradientUnits="userSpaceOnUse"
       gradientTransform="matrix(0.6123962,0,0,0.6094946,42.167427,25.148023)"
       x1="103.68489"
       y1="117.18681"
       x2="103.68489"
       y2="127.63157" /></defs><g
     inkscape:label="图层 1"
     inkscape:groupmode="layer"
     id="layer1"
     transform="translate(27.562538,-14.475021)"><g
       id="g12"
       transform="matrix(1.1759287,0,0,1.1759287,-19.086522,-26.744734)"><path
         id="path44"
         style="fill:url(#linearGradient46);stroke-width:0.16346"
         d="m 81.065773,96.268528 c -1.554074,0 -2.901066,1.248145 -2.805187,2.791897 l 0.09991,1.606135 h 2.370523 c -0.07051,-1.398119 1.159548,-2.524029 2.572571,-2.524029 h 49.91555 c 1.41303,0 2.64309,1.12591 2.57257,2.524029 h 2.37054 l 0.0999,-1.606135 c 0.0959,-1.543752 -1.25111,-2.791897 -2.80519,-2.791897 z" /><path
         id="path39"
         style="fill:url(#linearGradient41);stroke-width:0.177462"
         d="m 78.735884,99.395824 c -1.687211,0 -3.149354,1.355186 -3.045259,3.031206 l 0.103265,1.66363 h 2.582264 c -0.02537,-1.47971 1.282756,-2.66018 2.789158,-2.66018 h 54.192108 c 1.50643,0 2.81418,1.18047 2.78881,2.66018 h 2.58264 l 0.10326,-1.66363 c 0.10411,-1.67602 -1.35803,-3.031206 -3.04526,-3.031206 z" /><path
         id="path37"
         style="fill:url(#linearGradient39);stroke-width:0.193741"
         d="m 76.027991,102.52311 c -1.841964,0 -3.438487,1.47935 -3.324846,3.3091 l 0.157688,2.54258 h 2.805186 l -0.03728,-0.55245 c -0.113599,-1.6786 1.360812,-3.03677 3.051223,-3.03677 h 59.162808 c 1.69042,0 3.16483,1.35817 3.05122,3.03677 l -0.0373,0.55245 h 2.80519 l 0.15768,-2.54258 c 0.11365,-1.82975 -1.48286,-3.3091 -3.32483,-3.3091 z" /><path
         id="path33"
         style="fill:url(#linearGradient37);stroke-width:0.208855"
         d="m 73.513201,106.54419 c -1.985663,0 -3.706808,1.59444 -3.584303,3.56694 l 0.151351,2.43683 h 3.020282 l -0.01752,-0.25674 c -0.122464,-1.80953 1.466769,-3.27348 3.289058,-3.27348 H 140.1503 c 1.82227,0 3.41189,1.46395 3.28943,3.27348 l -0.0175,0.25674 h 3.02028 l 0.15136,-2.43683 c 0.12249,-1.9725 -1.59864,-3.56694 -3.58432,-3.56694 z m -0.348179,20.25191 c 0.366207,0.13103 0.756387,0.21594 1.17613,0.21594 h 0.776876 c -0.07423,-0.0648 -0.1339,-0.14488 -0.20242,-0.21594 z m 68.442108,0 c -0.0685,0.071 -0.12818,0.15125 -0.20243,0.21594 h 0.7765 c 0.41976,0 0.80991,-0.085 1.17614,-0.21594 z" /><path
         id="rect27"
         style="fill:url(#linearGradient31);stroke-width:0.226424"
         d="m 70.590215,110.79603 c -2.152694,0 -4.018696,1.72868 -3.885884,3.86711 l 0.181545,2.92398 h 3.273403 l -0.03542,-0.52276 c -0.132765,-1.96176 1.590461,-3.54914 3.566037,-3.54914 h 69.142934 c 1.97558,0 3.6988,1.58738 3.56604,3.54914 l -0.25647,3.78844 h 3.29128 l 0.38473,-6.18966 c 0.13281,-2.13843 -1.73321,-3.86711 -3.88589,-3.86711 z" /><path
         id="path2"
         style="fill:url(#linearGradient8);stroke-width:0.22391"
         d="m 66.968261,115.59958 c -2.207438,0 -4.123893,1.77284 -3.984671,3.96543 l 0.461878,7.27599 c 0.02162,-4.3e-4 0.04164,-0.007 0.06337,-0.007 h 3.597349 l -0.35973,-4.08559 c -0.192703,-2.18859 1.741761,-3.96542 3.90564,-3.96542 H 95.73327 c 2.163884,0 4.000926,2.0081 4.151677,3.07387 l 45.961443,0.006 c 2.1639,2.8e-4 4.14788,1.78186 3.9064,3.96541 l -0.11146,1.0062 h 3.18431 l 0.32804,-3.94465 c 0.18213,-2.18947 -1.77724,-3.96902 -3.98466,-3.96579 l -46.29473,0.068 c -0.49122,-1.66607 -2.60705,-3.39257 -4.814485,-3.39257 z" /><path
         id="circle15-1"
         style="fill:#e6e6e6;fill-opacity:1;stroke-width:0.343802"
         d="m 106.47205,162.61977 a 12.751655,12.691236 0 0 1 -0.0303,-0.56587 12.751655,12.691236 0 0 0 -0.005,0.0703 12.751655,12.691236 0 0 0 0.0355,0.49561 z" /><path
         id="path1"
         style="fill:url(#linearGradient26);stroke-width:0.261412"
         d="m 61.241577,124.47168 c -2.253378,0 -4.30334,2.37779 -4.067801,5.29516 l 5.040764,62.43125 c 0.235548,2.91735 1.814047,5.29514 4.067429,5.29514 h 84.914611 c 2.25338,0 3.83189,-2.37779 4.06743,-5.29514 l 5.04076,-62.43125 c 0.23554,-2.91737 -1.81442,-5.29516 -4.06781,-5.29516 z m 49.109983,13.64819 h 9.32217 v 3.10505 h -2.75301 v 3.71166 h 19.94313 c 3.27249,0 7.23927,3.42006 7.08548,6.67344 l -1.02218,21.618 c -0.15381,3.25342 -3.81257,7.05341 -7.0851,7.05341 h -18.92133 v 4.02513 l 2.75301,0.0138 v 2.56187 h -9.32217 v -2.56187 l 2.75225,-0.0138 v -4.02513 H 83.244313 c -3.272516,0 -6.933521,-3.79999 -7.087338,-7.05341 l -1.022171,-21.618 c -0.153815,-3.25338 3.814822,-6.67344 7.087341,-6.67344 h 30.881665 v -3.71129 l -2.75225,-3.7e-4 z m -28.129415,9.77777 c -2.085462,0 -3.828449,1.63911 -3.730434,3.71238 l 1.022169,21.618 c 0.09802,2.07328 1.644975,3.71201 3.730433,3.71201 h 29.859497 v -29.04239 z m 34.698575,0 v 29.04239 h 18.92133 c 2.08547,0 3.6302,-1.63873 3.72819,-3.71201 l 1.02218,-21.618 c 0.098,-2.07327 -1.64311,-3.71238 -3.72857,-3.71238 z m -32.863368,3.15067 h 6.135253 c 2.417837,0 4.199672,0.5042 5.344953,1.51301 1.163479,0.98902 2.126722,3.2527 2.126722,5.27028 0,1.1275 -0.190841,2.06662 -0.572592,2.81825 -0.381775,0.75164 -1.2543,1.73478 -1.85422,2.18974 -0.581735,0.43514 -1.199779,0.7813 -1.854219,1.03845 l 6.36675,9.11476 H 96.88703 l -5.73973,-8.37271 h -3.361006 l 0.511084,8.37271 H 85.07952 Z m 3.217858,3.07387 0.511084,7.48266 h 2.917395 c 1.581595,0 2.225271,-0.33552 2.952436,-1.00804 0.727173,-0.69234 1.090761,-1.32119 1.090761,-2.64648 0,-1.38464 -0.38165,-2.36444 -1.145187,-2.93807 -0.763518,-0.59342 -1.945387,-0.89007 -3.545161,-0.89007 z m 15.66985,2.70216 h 2.76316 l -0.38061,4.42098 4.09917,-1.56639 0.26655,2.80257 -3.94745,-0.13982 2.71166,3.26753 -2.08427,1.42206 -2.066,-4.06889 -1.91355,4.06889 -2.14169,-1.42206 2.67402,-3.26753 -3.909415,0.13982 0.266167,-2.80257 4.061138,1.56639 z"
         sodipodi:nodetypes="sccssccsscccccsccsccccccccsccsccccsccsccsccsccsccscsscccccccccccscscsccccccccccccccccc" /><path
         id="path23"
         style="display:none;fill:url(#linearGradient25);stroke-width:0.406252"
         d="m 99.382168,160.14933 v 5.2e-4 c -10.731891,5e-5 -19.431838,8.7 -19.431889,19.43189 0.01979,10.25251 10.135265,17.07162 17.175311,17.95388 4.44511,0.55706 7.41192,-0.0373 8.16113,-2.81578 0.61324,-2.27423 -0.79708,-5.32882 -4.61574,-5.35058 -4.070999,-0.0232 -11.076933,-4.39653 -11.078912,-9.78752 3e-5,-5.4069 4.383202,-9.79007 9.7901,-9.7901 5.406912,3e-5 7.552972,4.20207 10.285162,8.56485 2.68551,4.28826 7.36625,5.91861 12.43386,5.99188 l 0.01,7.5029 c 0.002,1.79133 1.80413,2.98929 3.60857,3.0856 0.73632,-0.0439 1.46557,-0.30423 2.0593,-0.83664 5.106,-4.57846 8.70655,-8.4012 11.72642,-11.59154 0.30641,-0.35395 0.61268,-0.70638 0.92036,-1.06918 0.50182,-0.59173 0.76084,-1.50105 0.77359,-2.41484 -0.0128,-0.9138 -0.27177,-1.82311 -0.77359,-2.41484 -0.30768,-0.3628 -0.61395,-0.71523 -0.92036,-1.06919 -3.01987,-3.19033 -6.62042,-7.01306 -11.72642,-11.59154 -0.59373,-0.53239 -1.32298,-0.79267 -2.0593,-0.83664 -1.80444,0.0964 -3.60637,1.29427 -3.60857,3.0856 l -0.0103,7.87756 c -2.26844,-0.5251 -4.16663,-1.58494 -5.55935,-3.71192 -2.50705,-3.8288 -4.66343,-5.90314 -7.46466,-7.57835 -2.80124,-1.67522 -6.21418,-2.62282 -9.694502,-2.63602 z"
         sodipodi:nodetypes="cccsasccscccccscscscccsscc" /><path
         style="fill:#000000"
         id="path41"
         d="" /></g></g></svg>
